<svg width="24" height="24" viewBox="0 0 24 24" fill="none" xmlns="http://www.w3.org/2000/svg">
<path d="M18.9112 19.8846C17.1714 19.8846 15.4153 19.4407 13.6429 18.5529C11.8705 17.6651 10.2737 16.5106 8.85251 15.0894C7.43136 13.6683 6.27367 12.0747 5.37944 10.3087C4.4852 8.54263 4.03809 6.78975 4.03809 5.05C4.03809 4.75 4.13809 4.5 4.33809 4.3C4.53809 4.1 4.78809 4 5.08809 4H7.56119C7.8458 4 8.08939 4.08462 8.29194 4.25385C8.4945 4.42307 8.62528 4.64357 8.68426 4.91537L9.18041 7.3C9.22656 7.55897 9.22239 7.7939 9.16791 8.0048C9.11343 8.2157 8.99836 8.39615 8.82271 8.54615L6.64771 10.5923C7.52719 12.0744 8.53136 13.3724 9.66021 14.4865C10.7891 15.6006 12.1022 16.5795 13.5996 17.4231L15.7189 15.2269C15.8945 15.0513 16.0839 14.9324 16.2871 14.8702C16.4903 14.808 16.7086 14.8 16.9419 14.8462L19.0458 15.2769C19.3176 15.3397 19.5381 15.4715 19.7073 15.6721C19.8766 15.8728 19.9612 16.1154 19.9612 16.4V18.8346C19.9612 19.1346 19.8612 19.3846 19.6612 19.5846C19.4612 19.7846 19.2112 19.8846 18.9112 19.8846ZM6.15926 9.65385L8.07849 7.88845C8.14259 7.83717 8.18425 7.76666 8.20349 7.67692C8.22272 7.58717 8.21951 7.50384 8.19386 7.42692L7.74964 5.3077C7.72399 5.20513 7.67911 5.12821 7.61501 5.07692C7.55091 5.02564 7.46758 5 7.36501 5H5.31309C5.23617 5 5.17207 5.02564 5.12079 5.07692C5.0695 5.12821 5.04386 5.19231 5.04386 5.26923C5.06309 5.95256 5.17014 6.66603 5.36501 7.40963C5.55989 8.15321 5.82464 8.90128 6.15926 9.65385ZM14.5323 17.8731C15.208 18.2077 15.9282 18.4551 16.6929 18.6154C17.4576 18.7756 18.124 18.8615 18.6919 18.8731C18.7689 18.8731 18.833 18.8474 18.8843 18.7962C18.9355 18.7449 18.9612 18.6808 18.9612 18.6039V16.5962C18.9612 16.4936 18.9355 16.4103 18.8843 16.3462C18.833 16.2821 18.7561 16.2372 18.6535 16.2115L16.8035 15.8327C16.7266 15.807 16.6592 15.8038 16.6016 15.8231C16.5439 15.8423 16.483 15.884 16.4189 15.9481L14.5323 17.8731Z" fill="#F7F6F9"/>
</svg>
