<svg width="24" height="24" viewBox="0 0 24 24" fill="none" xmlns="http://www.w3.org/2000/svg">
<path d="M11 19.6535L9.84423 18.6112C8.32371 17.2202 7.05736 16.0228 6.04518 15.0189C5.03301 14.0151 4.22852 13.1221 3.63172 12.3401C3.03492 11.558 2.61378 10.8426 2.36828 10.1939C2.12276 9.5452 2 8.88879 2 8.22469C2 6.95289 2.43205 5.8859 3.29615 5.02372C4.16025 4.16155 5.2282 3.73047 6.5 3.73047C7.37948 3.73047 8.20448 3.95547 8.975 4.40547C9.74552 4.85547 10.4205 5.50995 11 6.36892C11.5795 5.50995 12.2545 4.85547 13.025 4.40547C13.7955 3.95547 14.6205 3.73047 15.5 3.73047C16.6577 3.73047 17.6404 4.0904 18.4481 4.81027C19.2558 5.53014 19.7494 6.42661 19.9289 7.49969H18.9C18.741 6.67918 18.3442 6.01251 17.7096 5.49969C17.075 4.98688 16.3385 4.73047 15.5 4.73047C14.6885 4.73047 13.9519 4.95964 13.2904 5.41797C12.6288 5.8763 11.9994 6.57021 11.4019 7.49969H10.5981C9.99166 6.55739 9.35608 5.86028 8.69135 5.40834C8.0266 4.95643 7.29615 4.73047 6.5 4.73047C5.52437 4.73047 4.69713 5.06284 4.01828 5.72757C3.33943 6.39232 3 7.22469 3 8.22469C3 8.78751 3.11667 9.35867 3.35 9.93817C3.58333 10.5177 4 11.1846 4.6 11.9391C5.2 12.6936 6.01667 13.5795 7.05 14.5968C8.08333 15.6141 9.4 16.8484 11 18.2997C11.5103 17.8394 12.0122 17.385 12.5058 16.9362C12.9994 16.4875 13.4404 16.0773 13.8288 15.7055L13.9385 15.8151L14.1856 16.0622L14.4327 16.3093L14.5423 16.4189C14.15 16.7907 13.7122 17.1936 13.2289 17.6276C12.7455 18.0616 12.2551 18.5087 11.7577 18.9689L11 19.6535ZM17.7308 16.4997V13.4997H14.7308V12.4997H17.7308V9.49969H18.7308V12.4997H21.7308V13.4997H18.7308V16.4997H17.7308Z" fill="#F7F6F9"/>
</svg>
