<svg width="20" height="20" viewBox="0 0 20 20" fill="none" xmlns="http://www.w3.org/2000/svg">
<path d="M10.0007 15.9577C9.19723 15.2622 8.37271 14.5445 7.52709 13.8046C6.68146 13.0648 5.90983 12.3105 5.21219 11.5418C4.51454 10.7731 3.94376 10.0004 3.49984 9.2237C3.05594 8.44699 2.83398 7.68471 2.83398 6.93685C2.83398 5.80302 3.21719 4.84942 3.98361 4.07606C4.75001 3.3027 5.69319 2.91602 6.81315 2.91602C7.3311 2.91602 7.82436 3.00656 8.29294 3.18764C8.76154 3.36874 9.18441 3.61794 9.56155 3.93524L8.35642 8.91602H10.9045L9.98463 15.5554L12.6609 7.08268H10.1289L11.3051 3.35031C11.587 3.21249 11.8837 3.10565 12.1951 3.02979C12.5066 2.95394 12.8269 2.91602 13.1561 2.91602C14.2761 2.91602 15.2192 3.3027 15.9857 4.07606C16.7521 4.84942 17.1353 5.80302 17.1353 6.93685C17.1353 7.70928 16.8941 8.50388 16.4117 9.32066C15.9293 10.1374 15.3262 10.9425 14.6024 11.7357C13.8786 12.529 13.1062 13.2825 12.2851 13.9961C11.4641 14.7098 10.7026 15.3637 10.0007 15.9577ZM9.49423 14.7573L10.1529 9.58268H7.56636L8.85161 4.19166C8.54071 4.01004 8.21098 3.86313 7.86244 3.75095C7.51389 3.63877 7.16412 3.58268 6.81315 3.58268C5.87862 3.58268 5.09291 3.90461 4.45601 4.54845C3.8191 5.1923 3.50065 5.98843 3.50065 6.93685C3.50065 7.48599 3.64168 8.04422 3.92373 8.61154C4.20578 9.17884 4.60721 9.78301 5.12805 10.424C5.64888 11.0651 6.27682 11.7384 7.01186 12.4441C7.7469 13.1497 8.57436 13.9208 9.49423 14.7573ZM10.9975 14.424C12.7186 12.7819 14.0607 11.381 15.0239 10.2213C15.987 9.06158 16.4686 7.96677 16.4686 6.93685C16.4686 5.98843 16.1502 5.1923 15.5132 4.54845C14.8763 3.90461 14.0906 3.58268 13.1561 3.58268C12.9392 3.58268 12.7207 3.60993 12.5007 3.66441C12.2806 3.7189 12.0674 3.77926 11.8612 3.84549L11.0167 6.41602H13.5327L10.9975 14.424Z" fill="#FF3939"/>
</svg>
