<svg width="24" height="24" viewBox="0 0 24 24" fill="none" xmlns="http://www.w3.org/2000/svg">
<path d="M12 21.1539C11.5398 21.1539 11.1394 20.9997 10.799 20.6914C10.4586 20.383 10.2564 19.9987 10.1923 19.5385H13.8077C13.7436 19.9987 13.5414 20.383 13.201 20.6914C12.8606 20.9997 12.4602 21.1539 12 21.1539ZM8.5 17.7693V16.7692H15.5V17.7693H8.5ZM8.5577 15C7.61282 14.3808 6.86698 13.5955 6.32018 12.6442C5.77339 11.6929 5.5 10.6449 5.5 9.5C5.5 7.6859 6.12981 6.14904 7.38942 4.88942C8.64904 3.62981 10.1859 3 12 3C13.8141 3 15.351 3.62981 16.6106 4.88942C17.8702 6.14904 18.5 7.6859 18.5 9.5C18.5 10.6449 18.2266 11.6929 17.6798 12.6442C17.133 13.5955 16.3872 14.3808 15.4423 15H8.5577ZM8.85 14H15.15C15.9 13.4667 16.4792 12.8083 16.8875 12.025C17.2958 11.2417 17.5 10.4 17.5 9.5C17.5 7.96667 16.9667 6.66667 15.9 5.6C14.8333 4.53333 13.5333 4 12 4C10.4667 4 9.16667 4.53333 8.1 5.6C7.03333 6.66667 6.5 7.96667 6.5 9.5C6.5 10.4 6.70417 11.2417 7.1125 12.025C7.52083 12.8083 8.1 13.4667 8.85 14Z" fill="#F7F6F9"/>
</svg>
