<svg width="24" height="24" viewBox="0 0 24 24" fill="none" xmlns="http://www.w3.org/2000/svg">
<path d="M10 11.3848C9.175 11.3848 8.46875 11.091 7.88125 10.5035C7.29375 9.91604 7 9.20979 7 8.38479C7 7.55977 7.29375 6.85352 7.88125 6.26602C8.46875 5.67852 9.175 5.38477 10 5.38477C10.825 5.38477 11.5312 5.67852 12.1188 6.26602C12.7063 6.85352 13 7.55977 13 8.38479C13 9.20979 12.7063 9.91604 12.1188 10.5035C11.5312 11.091 10.825 11.3848 10 11.3848ZM3 18.6156V16.9694C3 16.5091 3.11603 16.1111 3.34808 15.7752C3.58013 15.4393 3.90769 15.172 4.33078 14.9732C5.14231 14.5784 5.97884 14.2534 6.84037 13.9982C7.70192 13.7431 8.75513 13.6155 10 13.6155H10.2346C10.2962 13.6155 10.3705 13.6194 10.4577 13.6271C10.3885 13.7989 10.3337 13.9672 10.2933 14.1319C10.2529 14.2966 10.2141 14.4579 10.1769 14.6155H10C8.88077 14.6155 7.90481 14.7303 7.07213 14.9598C6.23943 15.1893 5.48462 15.4861 4.8077 15.8502C4.50385 16.0104 4.29327 16.1784 4.17595 16.354C4.05865 16.5296 4 16.7348 4 16.9694V17.6155H10.3C10.3487 17.7732 10.4083 17.9428 10.4788 18.1242C10.5494 18.3056 10.6269 18.4694 10.7116 18.6156H3ZM16.2115 19.0963L16.0654 17.9425C15.7885 17.8848 15.5272 17.7877 15.2817 17.6511C15.0362 17.5146 14.8154 17.3412 14.6192 17.1309L13.5346 17.5617L13.1115 16.8425L14.0308 16.1502C13.9205 15.8655 13.8654 15.572 13.8654 15.2694C13.8654 14.9668 13.9205 14.6733 14.0308 14.3886L13.1308 13.6579L13.5539 12.9386L14.6192 13.3886C14.8026 13.1784 15.0202 13.0082 15.2721 12.878C15.524 12.7479 15.7885 12.654 16.0654 12.5963L16.2115 11.4425H17.0577L17.1846 12.5963C17.4615 12.654 17.726 12.7489 17.9779 12.8809C18.2298 13.013 18.4474 13.1861 18.6308 13.4002L19.6961 12.9386L20.1193 13.6694L19.2193 14.4002C19.3295 14.6811 19.3846 14.9738 19.3846 15.2782C19.3846 15.5826 19.3295 15.8732 19.2193 16.1502L20.1385 16.8425L19.7154 17.5617L18.6308 17.1309C18.4346 17.3412 18.2138 17.5146 17.9683 17.6511C17.7228 17.7877 17.4615 17.8848 17.1846 17.9425L17.0577 19.0963H16.2115ZM16.6171 17.0771C17.1147 17.0771 17.5401 16.8999 17.8933 16.5456C18.2465 16.1912 18.4231 15.7653 18.4231 15.2677C18.4231 14.7701 18.2459 14.3447 17.8916 13.9915C17.5372 13.6383 17.1113 13.4617 16.6137 13.4617C16.1161 13.4617 15.6907 13.6389 15.3375 13.9932C14.9843 14.3475 14.8077 14.7735 14.8077 15.2711C14.8077 15.7687 14.9849 16.1941 15.3392 16.5473C15.6936 16.9005 16.1195 17.0771 16.6171 17.0771ZM10 10.3848C10.55 10.3848 11.0208 10.189 11.4125 9.79729C11.8042 9.40562 12 8.93479 12 8.38479C12 7.83479 11.8042 7.36396 11.4125 6.97229C11.0208 6.58062 10.55 6.38479 10 6.38479C9.45 6.38479 8.97917 6.58062 8.5875 6.97229C8.19583 7.36396 8 7.83479 8 8.38479C8 8.93479 8.19583 9.40562 8.5875 9.79729C8.97917 10.189 9.45 10.3848 10 10.3848Z" fill="#F7F6F9"/>
</svg>
