<svg width="48" height="48" viewBox="0 0 48 48" fill="none" xmlns="http://www.w3.org/2000/svg">
<path d="M25.2027 44.8329L24.7364 38.9416L22.8788 38.9296C18.0241 38.834 13.8828 37.0442 10.4547 33.5603C7.02655 30.0765 5.3125 25.8896 5.3125 20.9998C5.3125 16.0708 7.07577 11.8542 10.6023 8.35005C14.1289 4.84585 18.3801 3.09375 23.3561 3.09375C25.806 3.09375 28.0868 3.54423 30.1987 4.4452C32.3106 5.34617 34.1422 6.58603 35.6935 8.1648C37.2448 9.74353 38.4668 11.6184 39.3594 13.7893C40.252 15.9602 40.6984 18.3183 40.6984 20.8636C40.6984 23.2286 40.3308 25.5602 39.5957 27.8584C38.8605 30.1566 37.8214 32.3447 36.4783 34.4226C35.1352 36.5005 33.512 38.4296 31.6088 40.2099C29.7056 41.9902 27.5702 43.5312 25.2027 44.8329ZM28.2875 38.5068C31.0436 36.2133 33.2016 33.4878 34.7616 30.3304C36.3216 27.1728 37.1016 24.0252 37.1016 20.8875C37.1016 16.6925 35.7962 13.2775 33.1855 10.6427C30.5747 8.00792 27.293 6.6905 23.3404 6.6905C19.3211 6.6905 15.909 8.08525 13.1043 10.8748C10.2996 13.6643 8.8973 17.0479 8.8973 21.0258C8.8973 25.0037 10.2913 28.3887 13.0793 31.1807C15.8674 33.9728 19.2587 35.3688 23.2533 35.3688H28.2875V38.5068ZM23.4029 32.8666C23.9578 32.8666 24.4433 32.663 24.8593 32.2557C25.2752 31.8484 25.4832 31.3574 25.4832 30.7829C25.4832 30.2083 25.2755 29.711 24.8603 29.291C24.4452 28.8711 23.9508 28.6611 23.3771 28.6611C22.8094 28.6611 22.3156 28.8682 21.8957 29.2824C21.4757 29.6966 21.2657 30.1959 21.2657 30.7802C21.2657 31.3646 21.4734 31.8584 21.8888 32.2617C22.3042 32.665 22.8089 32.8666 23.4029 32.8666ZM21.8158 25.8808H24.6471C24.6471 25.099 24.8031 24.3996 25.1151 23.7825C25.4271 23.1654 26.0085 22.4354 26.8593 21.5927C27.8099 20.634 28.4599 19.7803 28.8092 19.0317C29.1585 18.2831 29.3332 17.4633 29.3332 16.5724C29.3332 14.9705 28.8185 13.6785 27.7892 12.6963C26.7598 11.7142 25.3545 11.2231 23.5733 11.2231C22.1126 11.2231 20.8075 11.6179 19.658 12.4075C18.5085 13.1971 17.661 14.2668 17.1157 15.6166L19.7187 16.6764C20.095 15.8018 20.6042 15.1478 21.2463 14.7144C21.8884 14.2811 22.6061 14.0644 23.3995 14.0644C24.3342 14.0644 25.077 14.2846 25.6277 14.725C26.1784 15.1654 26.4538 15.7798 26.4538 16.5682C26.4538 17.194 26.2895 17.8112 25.9609 18.4198C25.6323 19.0285 24.9752 19.8336 23.9896 20.8351C23.0483 21.7938 22.4507 22.5802 22.1968 23.1943C21.9428 23.8084 21.8158 24.7039 21.8158 25.8808Z" fill="#7B00B6"/>
</svg>
