<svg width="48" height="48" viewBox="0 0 48 48" fill="none" xmlns="http://www.w3.org/2000/svg">
<path d="M24.0153 44.8605C21.0974 44.8605 18.3698 44.3208 15.8325 43.2414C13.2952 42.1621 11.0789 40.6728 9.18357 38.7735C7.28827 36.8742 5.80729 34.6484 4.74063 32.0962C3.67396 29.5439 3.14062 26.8042 3.14062 23.8772C3.14062 20.9769 3.67396 18.2581 4.74063 15.7208C5.80729 13.1835 7.28827 10.9858 9.18357 9.12781C11.0789 7.26984 13.2943 5.80554 15.8299 4.73491C18.3655 3.66424 21.0968 3.12891 24.0239 3.12891C26.9242 3.12891 29.641 3.66424 32.1743 4.73491C34.7077 5.80554 36.922 7.26984 38.8173 9.12781C40.7126 10.9858 42.1955 13.1858 43.2662 15.7277C44.3368 18.2696 44.8722 20.9939 44.8722 23.9007C44.8722 26.8221 44.3368 29.5564 43.2662 32.1037C42.1955 34.6509 40.7126 36.8742 38.8173 38.7735C36.922 40.6728 34.7039 42.1621 32.163 43.2414C29.6222 44.3208 26.9063 44.8605 24.0153 44.8605ZM23.9885 41.0692C25.1392 39.9105 26.0896 38.5601 26.8396 37.0181C27.5896 35.476 28.2186 33.647 28.7265 31.5311H19.3243C19.783 33.5137 20.3973 35.3037 21.1671 36.901C21.9369 38.4982 22.8773 39.8876 23.9885 41.0692ZM19.5961 40.4311C18.7881 39.2311 18.0965 37.909 17.5214 36.4648C16.9462 35.0206 16.4544 33.376 16.0461 31.5311H8.66998C9.86998 33.8246 11.2973 35.6417 12.9521 36.9822C14.6068 38.3228 16.8214 39.4724 19.5961 40.4311ZM28.4309 40.3811C30.7722 39.6637 32.8868 38.5344 34.7749 36.9931C36.6629 35.4518 38.1943 33.6311 39.3689 31.5311H32.0619C31.6238 33.3311 31.1111 34.9561 30.5238 36.4061C29.9365 37.8561 29.2388 39.1811 28.4309 40.3811ZM7.60763 28.3887H15.47C15.362 27.5141 15.2997 26.7204 15.283 26.0077C15.2664 25.295 15.258 24.5927 15.258 23.9007C15.258 23.0673 15.2747 22.3296 15.308 21.6876C15.3414 21.0456 15.412 20.3372 15.52 19.5626H7.60763C7.38109 20.3372 7.22416 21.0372 7.13682 21.6626C7.04952 22.288 7.00587 23.034 7.00587 23.9007C7.00587 24.7594 7.04952 25.5284 7.13682 26.2077C7.22416 26.8871 7.38109 27.6141 7.60763 28.3887ZM18.7379 28.3887H29.3146C29.4399 27.3807 29.5173 26.5537 29.5466 25.9077C29.576 25.2617 29.5906 24.5927 29.5906 23.9007C29.5906 23.234 29.576 22.5963 29.5466 21.9876C29.5173 21.3789 29.4394 20.5706 29.313 19.5626H18.7363C18.6029 20.5706 18.5196 21.3789 18.4863 21.9876C18.4529 22.5963 18.4363 23.234 18.4363 23.9007C18.4363 24.5927 18.4529 25.2617 18.4863 25.9077C18.5196 26.5537 18.6035 27.3807 18.7379 28.3887ZM32.5309 28.3887H40.433C40.6171 27.6141 40.7548 26.8871 40.8461 26.2077C40.9374 25.5284 40.983 24.7594 40.983 23.9007C40.983 23.034 40.9374 22.288 40.8461 21.6626C40.7548 21.0372 40.6171 20.3372 40.433 19.5626H32.5809C32.6396 20.7452 32.6856 21.6335 32.7189 22.2274C32.7523 22.8212 32.7689 23.379 32.7689 23.9007C32.7689 24.626 32.7439 25.3117 32.6939 25.9577C32.6439 26.6037 32.5896 27.4141 32.5309 28.3887ZM32.0119 16.4083H39.3689C38.2609 14.1829 36.7629 12.2996 34.8749 10.7583C32.9868 9.21696 30.8222 8.13761 28.3809 7.52021C29.1888 8.72817 29.8865 10.0385 30.4738 11.4512C31.0611 12.8639 31.5738 14.5162 32.0119 16.4083ZM19.3243 16.4083H28.7765C28.4258 14.7255 27.8318 13.0465 26.9944 11.3712C26.1571 9.69591 25.1551 8.21152 23.9885 6.91806C22.9711 7.85282 22.104 9.05156 21.3874 10.5143C20.6707 11.9769 19.983 13.9416 19.3243 16.4083ZM8.66998 16.4083H16.0869C16.4597 14.6162 16.9191 13.0222 17.4651 11.6262C18.0111 10.2302 18.7048 8.87817 19.5461 7.57021C17.0968 8.18761 14.9468 9.23997 13.0961 10.7273C11.2453 12.2146 9.76998 14.1083 8.66998 16.4083Z" fill="#7B00B6"/>
</svg>
