<svg width="48" height="48" viewBox="0 0 48 48" fill="none" xmlns="http://www.w3.org/2000/svg">
<path d="M4.43359 43.7829V12.9047H17.4586V8.48947L24.0379 2.07422L30.6031 8.48947V21.7655H43.6281V43.7829H4.43359ZM8.29879 39.9177H13.7129V34.5155H8.29879V39.9177ZM8.29879 31.0568H13.7129V25.6427H8.29879V31.0568ZM8.29879 22.184H13.7129V16.7818H8.29879V22.184ZM21.3238 39.9177H26.726V34.5155H21.3238V39.9177ZM21.3238 31.0568H26.726V25.6427H21.3238V31.0568ZM21.3238 22.184H26.726V16.7818H21.3238V22.184ZM21.3238 13.3232H26.726V7.92097H21.3238V13.3232ZM34.3368 39.9177H39.751V34.5155H34.3368V39.9177ZM34.3368 31.0568H39.751V25.6427H34.3368V31.0568Z" fill="#7B00B6"/>
</svg>
