<svg width="48" height="48" viewBox="0 0 48 48" fill="none" xmlns="http://www.w3.org/2000/svg">
<path d="M22.0928 36.8457H25.958V30.8457H31.958V26.9805H25.958V20.9805H22.0928V26.9805H16.0928V30.8457H22.0928V36.8457ZM7.00587 45.0739C5.98101 45.0739 5.08059 44.6848 4.30462 43.9065C3.52862 43.1281 3.14062 42.2249 3.14062 41.1968V15.3674C3.14062 14.3393 3.52862 13.4361 4.30462 12.6577C5.08059 11.8794 5.98101 11.4902 7.00587 11.4902H15.2287V6.59567C15.2287 5.5708 15.6167 4.67039 16.3927 3.89442C17.1686 3.11845 18.0691 2.73047 19.0939 2.73047H28.9069C29.9318 2.73047 30.8322 3.11845 31.6082 3.89442C32.3842 4.67039 32.7722 5.5708 32.7722 6.59567V11.4902H40.995C42.0231 11.4902 42.9264 11.8794 43.7047 12.6577C44.483 13.4361 44.8722 14.3393 44.8722 15.3674V41.1968C44.8722 42.2249 44.483 43.1281 43.7047 43.9065C42.9264 44.6848 42.0231 45.0739 40.995 45.0739H7.00587ZM7.00587 41.1968H40.995V15.3674H7.00587V41.1968ZM19.0939 11.4902H28.9069V6.59567H19.0939V11.4902Z" fill="#7B00B6"/>
</svg>
