<svg width="48" height="48" viewBox="0 0 48 48" fill="none" xmlns="http://www.w3.org/2000/svg">
<path d="M11.5332 44.4675V35.6182C9.59987 33.846 8.11654 31.7848 7.0832 29.4346C6.04987 27.0844 5.5332 24.6122 5.5332 22.0181C5.5332 16.8424 7.32045 12.4572 10.895 8.8626C14.4695 5.268 18.8331 3.4707 23.9859 3.4707C28.2689 3.4707 32.0626 4.7412 35.3669 7.2822C38.6712 9.8232 40.8382 13.1005 41.868 17.1142L44.5919 28.0859C44.7665 28.7258 44.6624 29.2827 44.2796 29.7566C43.8968 30.2305 43.3817 30.4675 42.7343 30.4675H38.53V36.6022C38.53 37.6834 38.1466 38.5979 37.3798 39.3458C36.6129 40.0936 35.7039 40.4675 34.6528 40.4675H30.53V44.4675H26.6528V36.6022H34.6528V26.6022H40.2408L38.1148 18.062C37.2814 14.9446 35.5604 12.3796 32.9517 10.3669C30.343 8.35424 27.3611 7.3479 24.0061 7.3479C19.9478 7.3479 16.4986 8.76427 13.6585 11.597C10.8185 14.4298 9.39845 17.8638 9.39845 21.899C9.39845 23.9818 9.82722 25.9738 10.6848 27.8749C11.5423 29.7759 12.7555 31.439 14.3245 32.8642L15.3985 33.8865V44.4675H11.5332ZM22.2494 29.3381H25.5509L25.7408 27.024C26.0981 26.9573 26.4259 26.8373 26.7242 26.664C27.0226 26.4906 27.2973 26.278 27.5485 26.0262L29.7387 26.6881L31.2908 24.0077L29.7528 22.7696C29.8941 22.323 29.9648 21.8764 29.9648 21.4298C29.9648 20.9832 29.8941 20.5312 29.7528 20.074L31.2908 18.8479L29.7387 16.1675L27.5461 16.8294C27.2899 16.591 27.006 16.3798 26.6943 16.1957C26.3826 16.0116 26.0647 15.8863 25.7408 15.8196L25.5357 13.5175H22.2343L22.0582 15.8196C21.7343 15.8863 21.4165 16.0116 21.1048 16.1957C20.7931 16.3798 20.5083 16.591 20.2506 16.8294L18.0724 16.1675L16.5082 18.8479L18.0343 20.074C17.893 20.5312 17.8224 20.9832 17.8224 21.4298C17.8224 21.8764 17.893 22.323 18.0343 22.7696L16.5082 24.0077L18.0724 26.6881L20.253 26.0262C20.5025 26.278 20.7765 26.4906 21.0748 26.664C21.3732 26.8373 21.701 26.9573 22.0582 27.024L22.2494 29.3381ZM23.8995 24.9599C22.9241 24.9599 22.0948 24.6147 21.4115 23.9244C20.7281 23.2341 20.3865 22.3999 20.3865 21.4218C20.3865 20.4437 20.7296 19.6095 21.4159 18.9192C22.1022 18.2289 22.9315 17.8838 23.9039 17.8838C24.8763 17.8838 25.7126 18.2289 26.4126 18.9192C27.1126 19.6095 27.4626 20.4437 27.4626 21.4218C27.4626 22.3999 27.1126 23.2341 26.4126 23.9244C25.7126 24.6147 24.8749 24.9599 23.8995 24.9599Z" fill="#7B00B6"/>
</svg>
