<svg width="72" height="72" viewBox="0 0 72 72" fill="none" xmlns="http://www.w3.org/2000/svg">
<mask id="mask0_813_761" style="mask-type:luminance" maskUnits="userSpaceOnUse" x="0" y="0" width="72" height="72">
<path d="M0 72H72V6.9844e-06H0V72Z" fill="white"/>
</mask>
<g mask="url(#mask0_813_761)">
<path d="M23.1535 17.2987C23.0157 17.454 22.7925 17.4568 22.5154 17.1792C21.6037 16.2657 21.4669 15.1736 21.8005 14.0037C21.9408 13.5116 22.2176 13.0549 22.4614 12.5977C22.5514 12.4287 22.7222 12.3219 22.901 12.5472C23.5101 13.3156 23.9647 14.1455 23.9869 15.1592C24.0036 15.926 23.8047 16.6117 23.1535 17.2987Z" fill="#443991"/>
<path d="M15.6924 25.0168C16.6759 24.9746 17.355 25.289 17.919 25.8874C18.0736 26.0516 18.0865 26.168 17.9151 26.3477C16.9319 27.3781 15.9307 27.619 14.3609 27.0674C13.9544 26.9246 13.5837 26.6751 13.2044 26.4608C12.9549 26.3198 12.9421 26.1482 13.1846 25.973C13.9795 25.3982 14.8336 24.9902 15.6924 25.0168Z" fill="#443991"/>
<path d="M44.9547 23.7358C44.3176 23.7326 44.3176 23.6454 44.3145 23.011C44.3075 21.6037 45.992 20.3694 47.1871 20.1893C47.2152 20.1851 47.2432 20.1811 47.271 20.1761C48.0567 20.0386 48.1129 20.0574 47.9161 20.8578C47.577 22.2366 46.8537 23.3134 45.3723 23.6855C45.304 23.7027 45.2363 23.7257 45.1668 23.734C45.097 23.7424 45.0254 23.7358 44.9547 23.7358Z" fill="#443991"/>
<path d="M26.9849 23.7949C26.079 23.6928 25.3984 23.326 24.8714 22.7262C24.314 22.0918 23.9642 21.3335 23.8651 20.4797C23.839 20.2555 23.8445 20.0044 24.1662 20.0596C25.2668 20.2482 26.2465 20.673 26.9874 21.5548C27.4364 22.0889 27.5685 22.7203 27.5125 23.3778C27.5246 23.6829 27.3701 23.7949 26.9849 23.7949Z" fill="#443991"/>
<path d="M10.3926 34.787C10.4077 33.587 10.4914 33.5264 11.343 34.0232C12.344 34.6069 13.1213 35.4109 13.3269 36.5858C13.4021 37.0153 13.241 37.499 13.1284 37.9428C13.0726 38.1624 12.5484 38.1023 12.1743 37.9012C10.8422 37.1849 10.4482 35.9757 10.3926 34.787Z" fill="#443991"/>
<path d="M31.2509 14.0996C31.1237 14.3834 30.904 14.2821 30.7157 14.1675C29.97 13.7143 29.4855 13.086 29.3214 12.2036C29.1628 11.3509 29.3319 10.5466 29.583 9.74805C29.6974 9.38423 29.8122 9.38181 30.1136 9.60738C30.9413 10.2268 31.4601 11.0369 31.6812 12.0424C31.7023 12.139 31.7216 12.2369 31.7298 12.3352C31.7298 12.9547 31.5586 13.572 31.2509 14.0996Z" fill="#443991"/>
<path d="M58.6758 36.8529C58.7706 35.7818 59.32 34.9577 60.1814 34.3305C60.498 34.1 60.8522 33.9152 61.2076 33.7484C61.287 33.711 61.5359 33.8183 61.5497 33.8893C61.8167 35.2664 61.3912 37.3471 59.6045 37.9706C59.0258 38.1724 58.8702 38.1008 58.7563 37.5085C58.7163 37.3004 58.7037 37.087 58.6758 36.8529Z" fill="#443991"/>
<path d="M56.2074 27.3411C55.4421 27.3777 54.7339 27.038 54.1595 26.3789C53.9797 26.1724 53.9966 26.0193 54.1803 25.8334C54.964 25.0407 56.2971 24.7426 57.3304 25.1871C57.8446 25.4084 58.3257 25.708 58.8144 25.9851C58.9716 26.0743 59.0933 26.2041 58.8947 26.3857C58.2858 26.9423 57.216 27.3409 56.2074 27.3411Z" fill="#443991"/>
<path d="M40.25 12.492C40.4481 11.2988 40.8667 10.5377 41.6732 9.84929C41.718 9.8153 41.7652 9.78301 41.804 9.74285C42.2365 9.29569 42.241 9.2992 42.4638 9.85921C42.8754 10.893 42.8975 11.932 42.4718 12.9598C42.2156 13.5787 41.7184 13.9819 41.1054 14.2215C41.0104 14.2585 40.7617 14.1424 40.7232 14.0429C40.4553 13.7263 40.25 13.0806 40.25 12.492Z" fill="#443991"/>
<path d="M23.8748 32.6011C23.9538 32.6108 24.0237 32.6224 24.0941 32.6276C24.9512 32.6905 24.9491 32.6892 24.5616 33.4717C24.1016 34.4003 23.382 35.0388 22.4169 35.4056C21.8282 35.6295 21.2435 35.5196 20.673 35.3445C20.5858 35.3179 20.4936 35.0817 20.5148 34.9621C20.7791 33.4714 22.0476 32.8162 23.2477 32.6393C23.4568 32.6085 23.671 32.6126 23.8748 32.6011Z" fill="#443991"/>
<path d="M47.9251 32.6297C48.8725 32.5628 49.736 32.7675 50.485 33.2914C51.0831 33.7097 51.4223 34.3402 51.5531 35.0607C51.568 35.1427 51.4358 35.3107 51.3388 35.3448C50.0394 35.8014 48.9811 35.3592 48.1162 34.3883C47.7918 34.0241 47.5554 33.5747 47.3162 33.1435C47.0693 32.6988 47.1429 32.6078 47.6557 32.6291C47.7546 32.6332 47.8539 32.6297 47.9251 32.6297Z" fill="#443991"/>
<path d="M38.7916 25.836C38.7206 26.8206 38.2693 27.9028 37.3899 28.7734C36.502 29.6525 35.0984 29.4989 34.239 28.3542C33.4938 27.3614 33.0477 26.2134 33.3138 24.9281C33.6283 23.4096 35.2852 22.4677 36.6976 22.8891C38.0194 23.2834 38.7985 24.2947 38.7916 25.836ZM34.7044 25.8407C34.7903 26.3499 35.0008 27.0497 35.5314 27.6021C35.9189 28.0055 36.0928 27.9852 36.4854 27.5957C36.9685 27.1166 37.1867 26.5105 37.3384 25.8699C37.4721 25.3064 37.2241 24.872 36.831 24.5175C36.4226 24.1489 35.9217 24.0866 35.4437 24.3357C34.9521 24.5918 34.6429 25.0082 34.7044 25.8407Z" fill="#443991"/>
<path d="M40.6645 30.6669C41.4288 30.0777 42.2224 29.6966 43.1633 29.6366C45.061 29.5157 46.8767 29.9966 48.7095 30.3602C50.2358 30.6629 51.7632 30.9607 53.2883 31.2694C53.386 31.2891 53.5023 31.3633 53.5519 31.4467C53.6891 31.677 53.8221 31.9164 53.9102 32.1685C54.4979 33.8483 54.5975 35.5783 54.3922 37.3318C54.3534 37.6639 54.392 37.8527 54.7865 37.8354C54.9953 37.8262 55.216 37.8617 55.4155 37.9262C55.7245 38.026 55.7891 37.8932 55.8005 37.6229C55.8152 37.2692 55.8712 36.9171 55.8872 36.5634C55.9547 35.07 55.9034 33.5864 55.4074 32.1562C55.1633 31.4522 55.1473 31.4884 55.857 31.4837C58.3208 31.4672 60.6703 30.9788 62.8146 29.7057C62.8728 29.6711 62.9259 29.6394 62.9761 29.6092C62.8577 29.1076 62.725 28.6115 62.5797 28.121C62.2841 28.3221 61.9846 28.5182 61.6705 28.6852C60.1186 29.5105 58.4461 29.8965 56.699 29.9833C54.6006 30.0875 52.5477 29.7672 50.5072 29.3211C49.2245 29.0407 47.9375 28.7799 46.6539 28.5033C46.5713 28.4854 46.5017 28.4073 46.426 28.3572C46.4995 28.283 46.5595 28.1759 46.6484 28.1397C47.7881 27.6763 48.6789 26.8674 49.5678 26.0551C50.217 25.4618 50.8235 24.8134 51.5196 24.2819C53.5983 22.6948 56.0007 21.9732 58.5826 21.7897C58.9769 21.7617 59.3722 21.748 59.7674 21.7321C59.4854 21.2635 59.1898 20.8042 58.8815 20.3541C58.2452 20.3954 57.6092 20.4428 56.9789 20.5301C55.3475 20.7562 53.7778 21.202 52.3368 22.0322C52.3094 22.048 52.258 22.0219 52.1551 22.0053C52.1959 21.8679 52.2155 21.7371 52.2717 21.6246C52.4737 21.2214 52.7206 20.8377 52.8919 20.4225C53.524 18.8906 54.3113 17.4512 55.3504 16.1566C55.0086 15.8231 54.6584 15.4984 54.2997 15.1828C54.0946 15.4269 53.8911 15.6721 53.6995 15.9264C52.5815 17.4103 51.9036 19.1306 51.1167 20.7915C50.2793 22.5591 49.4304 24.3142 47.8947 25.6202C46.9199 26.449 45.8363 27.067 44.6056 27.41C43.6953 27.6636 42.7752 27.8826 41.8577 28.1097C41.7721 28.131 41.6124 28.1296 41.5932 28.0885C41.5458 27.9882 41.5213 27.8454 41.5559 27.7426C42.0279 26.3346 42.1712 24.8889 42.0178 23.4199C41.7756 21.0999 42.4195 19.1091 44.1161 17.4774C44.6119 17.0005 45.0812 16.4962 45.5816 15.9851C45.4132 15.8431 45.254 15.7053 45.0911 15.5723C44.9162 15.4294 44.7342 15.1773 44.5617 15.1825C44.3866 15.1878 44.2189 15.4488 44.0486 15.5985C42.7731 16.7204 41.5986 17.9191 40.9986 19.5624C40.9703 19.6399 40.8618 19.7372 40.7918 19.7363C40.724 19.7356 40.6383 19.6306 40.5945 19.5523C40.4706 19.3309 40.3799 19.0903 40.2486 18.874C39.1752 17.1074 38.0975 15.3436 37.016 13.582C36.8211 13.2648 36.7682 12.9684 36.9913 12.6356C37.1236 12.438 37.8833 9.5745 38.1488 8.36341C37.6637 8.32615 37.3565 8.3016 36.8646 8.28975C36.7112 9.08743 36.0941 11.0447 35.9751 11.2444C35.8818 10.9785 35.2888 9.01704 35.1389 8.28975C34.6482 8.30148 34.342 8.32567 33.8578 8.36268C34.0949 9.84326 34.4488 11.293 35.0631 12.6739C35.1941 12.9683 35.2207 13.2288 35.0487 13.5194C34.4361 14.5545 33.8467 15.6034 33.2304 16.6363C32.6439 17.6194 32.0366 18.59 31.4322 19.5624C31.3865 19.6359 31.2716 19.7385 31.2227 19.7228C31.1312 19.6931 31.0353 19.6001 30.9932 19.5094C30.893 19.2931 30.8432 19.0529 30.7377 18.8399C30.1144 17.5811 29.1384 16.615 28.1003 15.7041C27.8738 15.5053 27.6042 15.1629 27.3918 15.1891C27.1228 15.2225 26.8969 15.5711 26.6432 15.7722C26.4185 15.9504 26.4393 16.1035 26.639 16.2894C27.0952 16.7146 27.5446 17.1473 27.9891 17.5847C29.1245 18.7018 29.9168 20.0054 30.0138 21.6293C30.0635 22.4621 30.012 23.3021 29.9814 24.138C29.9364 25.3677 30.0493 26.5701 30.4888 27.731C30.5267 27.8309 30.5142 28.016 30.4489 28.0709C30.3774 28.131 30.2111 28.1112 30.097 28.0826C29.37 27.9005 28.6548 27.656 27.919 27.5262C26.2417 27.2305 24.8947 26.3282 23.6918 25.2151C22.4216 24.0397 21.7193 22.4648 20.9857 20.9333C20.028 18.9339 19.2065 16.865 17.7356 15.1509C17.3644 15.4762 17.0024 15.8118 16.6492 16.1562C17.118 16.765 17.5909 17.3752 17.959 18.0413C18.636 19.2663 19.1986 20.5544 19.8063 21.8175C19.8267 21.86 19.8088 21.9208 19.8088 22.0397C19.6608 22.0028 19.5401 21.993 19.4387 21.9434C19.1886 21.8212 18.9543 21.6649 18.7011 21.55C16.9244 20.7432 15.0435 20.4523 13.129 20.3379C12.8181 20.791 12.52 21.2535 12.2359 21.7254C13.9218 21.7935 15.5828 21.9812 17.2022 22.5368C18.6615 23.0377 19.9767 23.7623 21.1201 24.7775C22.4821 25.9869 23.6693 27.4102 25.3974 28.1566C25.465 28.1858 25.4927 28.3075 25.5389 28.386C25.4569 28.4313 25.3794 28.5014 25.292 28.5174C25.0138 28.569 24.7286 28.584 24.4521 28.642C22.1685 29.1208 19.9184 29.7447 17.5733 29.935C14.6426 30.1727 11.9045 29.7191 9.41794 28.1259C9.27437 28.6115 9.14314 29.1024 9.02581 29.5986C9.99246 30.1884 11.0174 30.6445 12.1171 30.9325C13.6137 31.3246 15.1263 31.5717 16.7613 31.4324C16.736 31.622 16.7261 31.8228 16.6804 32.0151C16.553 32.5495 16.3763 33.0743 16.2813 33.6138C16.0633 34.8517 16.0663 36.0976 16.202 37.3478C16.2713 37.9852 16.2447 37.988 16.8788 37.8856C17.7248 37.7489 17.7364 37.7476 17.6398 36.9075C17.4523 35.2771 17.5615 33.681 18.1596 32.1389C18.3214 31.7218 18.4002 31.3135 19.0225 31.2038C21.1245 30.8334 23.2093 30.3641 25.3014 29.9367C26.5158 29.6886 27.7418 29.5637 28.9814 29.6522C29.6243 29.6982 30.2377 29.8565 30.7597 30.2647C30.9438 30.4088 31.1237 30.5584 31.3055 30.7054C31.1248 30.8452 30.9321 30.9719 30.7653 31.1267C29.5937 32.214 28.4091 33.288 27.2646 34.4031C25.9149 35.7179 24.6975 37.1862 23.251 38.3799C20.7088 40.4777 17.7352 41.3966 14.4044 41.1542C12.605 41.0232 10.9311 40.5217 9.30461 39.7959C9.03815 39.677 8.77387 39.5462 8.49023 39.4052C8.56111 39.9834 8.65038 40.5558 8.75621 41.1224C10.0793 41.7952 11.4947 42.1916 12.95 42.4363C14.3706 42.675 15.8075 42.6772 17.2369 42.5064C19.1615 42.2765 20.9464 41.6295 22.6023 40.623C24.3534 39.5588 25.7877 38.1336 27.177 36.6514C28.2525 35.5036 29.3359 34.3616 30.4575 33.2596C30.9644 32.7615 31.5729 32.3668 32.1368 31.9238C32.5375 32.4831 32.844 33.994 32.7853 34.9346C32.3621 37.4348 32.0973 39.4746 32.0058 41.4203L31.9499 41.2736C31.9807 41.3067 30.8443 46.1593 27.1157 48.0878C25.7014 48.705 24.2082 49.105 22.2557 49.2193C19.9738 49.1587 17.577 49.2993 15.6014 49.8555C15.0544 50.002 14.5201 50.1949 13.9786 50.3619C13.6384 50.5109 13.0682 50.7246 12.6378 50.9217C12.8994 51.3303 13.1719 51.7311 13.454 52.1247C13.944 51.9495 14.4991 51.6732 15.03 51.4822C17.249 50.6955 20.4814 50.4278 21.9985 50.6592C21.9754 50.7611 21.7979 50.8599 21.7731 50.8793C20.4634 51.9043 19.4621 53.1928 18.6413 54.6208C18.2527 55.2968 17.9156 56.0028 17.5782 56.7074C17.9453 57.0342 18.3211 57.3516 18.7054 57.6587C18.8848 57.2406 19.068 56.7854 19.2471 56.4192C20.3844 54.094 21.7672 51.8935 24.2614 50.7364C26.7043 49.9649 28.6875 49.1109 29.6923 48.2846C29.5104 49.6765 29.3343 50.7929 29.1138 52.0873C28.763 54.1463 28.3938 55.9959 27.5111 57.9024C26.8919 59.2397 26.0924 60.4461 25.0517 61.4692C25.5311 61.6755 26.0168 61.8696 26.5096 62.0492C27.6731 60.7852 28.5485 59.3084 29.2176 57.6838C29.4878 57.0275 29.8724 55.6377 29.981 55.2218C30.2382 54.2118 30.6003 52.4508 30.8532 50.6357C31.2464 48.3462 31.5173 46.943 32.0854 45.6276C32.2441 47.5318 32.5688 49.5893 33.0744 52.1174C33.3344 53.7821 33.604 55.4454 33.889 57.1061C33.9531 57.4802 34.1688 59.0655 34.192 59.3968C34.285 60.7264 34.3985 62.0547 34.5275 63.3813C34.5389 63.4975 34.7163 63.6863 34.8222 63.69C35.438 63.7124 36.0548 63.7091 36.6715 63.7084C36.8781 63.7034 37.0837 63.6955 37.2891 63.686C37.4319 63.6413 37.5026 63.5268 37.5182 63.3268C37.6221 61.9989 37.747 60.6725 37.8451 59.3442C37.8671 59.0458 38.1851 56.9196 38.2016 56.8219C38.5318 54.8521 38.8728 52.8843 39.1849 50.9116C39.3025 50.1678 39.7275 47.2957 39.9314 45.6672C40.4878 46.9711 40.7568 48.3692 41.146 50.6357C41.3989 52.4508 41.7611 54.2118 42.0182 55.2218C42.1268 55.6377 42.5115 57.0275 42.7817 57.6838C43.4508 59.3084 44.3262 60.7852 45.4897 62.0492C45.9824 61.8696 46.4682 61.6755 46.9475 61.4692C45.9068 60.4461 45.1075 59.2397 44.4883 57.9024C43.6056 55.9959 43.2362 54.1463 42.8854 52.0873C42.6649 50.7929 42.4888 49.6764 42.3069 48.2846C43.3118 49.1109 45.295 49.9649 47.7378 50.7364C50.2321 51.8935 51.6148 54.094 52.7521 56.4192C52.9312 56.7853 53.1146 57.2406 53.2939 57.6587C53.6781 57.3516 54.0539 57.0342 54.421 56.7074C54.0837 56.0028 53.7466 55.2968 53.358 54.6208C52.5372 53.1928 51.5358 51.9043 50.2263 50.8793C50.2014 50.8599 50.0238 50.7611 50.0007 50.6592C51.5178 50.4278 54.7502 50.6954 56.9692 51.4822C57.5001 51.6732 58.0554 51.9495 58.5452 52.1247C58.8273 51.7311 59.0998 51.3303 59.3614 50.9217C58.9311 50.7248 58.3608 50.5109 58.0207 50.3619C57.4792 50.1949 56.9448 50.002 56.398 49.8555C54.4222 49.2993 52.0254 49.1587 49.7435 49.2193C47.791 49.105 46.2979 48.705 44.8836 48.0878C41.5977 46.3881 40.3255 42.4195 40.0907 41.478C40.0602 39.8148 39.9399 38.3717 39.7795 37.2489C39.5739 35.9117 39.3708 35.0917 39.3528 34.0186C39.343 33.4381 39.5232 32.8501 39.6542 32.2737C39.7193 31.9866 39.9163 31.9305 40.1655 32.1293C40.4198 32.3322 40.7149 32.4905 40.9442 32.717C42.2848 34.0419 43.6342 35.359 44.9368 36.7209C46.5393 38.3967 48.1459 40.0521 50.2715 41.0887C51.9428 41.9038 53.6831 42.4697 55.5458 42.5887C58.1517 42.7552 60.6545 42.3297 63.0459 41.2525C63.1116 41.2229 63.1747 41.1929 63.2354 41.1622C63.3444 40.584 63.4361 39.9998 63.5085 39.4096C61.8274 40.2876 60.0631 40.9015 58.169 41.1314C56.1567 41.3758 54.2089 41.1058 52.3127 40.4291C49.7019 39.4973 47.7656 37.6531 45.9322 35.6726C44.3647 33.9792 42.9113 32.1643 40.9125 30.9256C40.8244 30.8711 40.7637 30.7724 40.6645 30.6669ZM40.4503 26.1185C40.0929 27.8804 39.5417 29.5446 38.5924 31.092C37.9486 32.1414 37.7914 33.36 37.8977 34.5837C38.018 35.9669 38.2071 37.3441 38.3369 38.7265C38.5441 40.9339 38.6174 43.1444 38.3767 45.3555C38.1988 46.9893 38.0465 48.6266 37.8268 50.255C37.6452 51.6018 37.3741 52.9363 37.1558 54.2783C36.7144 56.9926 36.2666 59.7064 36.1525 62.4613C36.1446 62.6503 36.0983 62.8378 36.0699 63.026C36.023 63.0215 35.976 63.017 35.9291 63.0126C35.8978 62.7215 35.8668 62.4305 35.8352 62.1395C35.6177 60.1393 35.4446 58.133 35.171 56.1405C34.8396 53.7275 34.4039 51.329 34.0483 48.9191C33.6186 46.0074 33.4382 43.0764 33.6257 40.1371C33.7327 38.4574 33.964 36.7857 34.1291 35.1095C34.2621 33.7592 34.1047 32.4511 33.5114 31.2142C33.0847 30.3246 32.5974 29.4586 32.2428 28.5413C31.6617 27.037 31.298 25.4681 31.4802 23.8428C31.623 22.5696 32.0214 21.3554 32.694 20.2533C33.6374 18.7076 34.6142 17.1822 35.5522 15.6332C35.9989 14.8957 35.9903 14.8694 36.4455 15.5962C37.4599 17.2157 38.4962 18.8236 39.4478 20.4797C40.4499 22.2236 40.8609 24.0943 40.4503 26.1185Z" fill="#443991"/>
<path d="M48.846 17.2987C48.9838 17.454 49.2071 17.4568 49.4842 17.1792C50.3958 16.2657 50.5326 15.1736 50.199 14.0037C50.0587 13.5116 49.782 13.0549 49.5381 12.5977C49.4481 12.4287 49.2774 12.3219 49.0986 12.5472C48.4895 13.3156 48.0348 14.1455 48.0127 15.1592C47.996 15.926 48.1948 16.6117 48.846 17.2987Z" fill="#443991"/>
</g>
</svg>
